{
    "asset" : {
        "generator" : "Khronos glTF Blender I/O v1.5.17",
        "version" : "2.0"
    },
    "extensionsUsed" : [
        "KHR_texture_transform"
    ],
    "extensionsRequired" : [
        "KHR_texture_transform"
    ],
    "scene" : 0,
    "scenes" : [
        {
            "name" : "Scene",
            "nodes" : [
                0,
                1
            ]
        }
    ],
    "nodes" : [
        {
            "mesh" : 0,
            "name" : "Landscape",
            "rotation" : [
                0,
                0,
                0,
                -1
            ],
            "scale" : [
                10,
                1,
                10
            ]
        },
        {
            "mesh" : 1,
            "name" : "Waterfall",
            "rotation" : [
                0,
                0,
                0,
                -1
            ],
            "scale" : [
                10,
                1,
                10
            ]
        }
    ],
    "materials" : [
        {
            "doubleSided" : true,
            "name" : "Mountain",
            "pbrMetallicRoughness" : {
                "baseColorTexture" : {
                    "extensions" : {
                        "KHR_texture_transform" : {
                            "offset" : [
                                0,
                                -2.75
                            ],
                            "scale" : [
                                3.75,
                                3.75
                            ]
                        }
                    },
                    "index" : 0
                },
                "metallicFactor" : 0.2545454502105713,
                "roughnessFactor" : 0.7345455288887024
            }
        },
        {
            "alphaMode" : "BLEND",
            "doubleSided" : true,
            "emissiveFactor" : [
                0.09131316095590591,
                0.20004583895206451,
                0.48910218477249146
            ],
            "name" : "Waterfall",
            "pbrMetallicRoughness" : {}
        }
    ],
    "meshes" : [
        {
            "name" : "Plane",
            "primitives" : [
                {
                    "attributes" : {
                        "POSITION" : 0,
                        "NORMAL" : 1,
                        "TEXCOORD_0" : 2
                    },
                    "indices" : 3,
                    "material" : 0
                }
            ]
        },
        {
            "name" : "Plane.001",
            "primitives" : [
                {
                    "attributes" : {
                        "POSITION" : 4,
                        "NORMAL" : 5,
                        "TEXCOORD_0" : 6
                    },
                    "indices" : 7,
                    "material" : 1
                }
            ]
        }
    ],
    "textures" : [
        {
            "sampler" : 0,
            "source" : 0
        }
    ],
    "images" : [
        {
            "bufferView" : 4,
            "mimeType" : "image/jpeg",
            "name" : "GroundDirtForest014_COL_1K.jpg"
        }
    ],
    "accessors" : [
        {
            "bufferView" : 0,
            "componentType" : 5126,
            "count" : 3003,
            "max" : [
                2.13726806640625,
                21.84430694580078,
                1.6538028717041016
            ],
            "min" : [
                -3.229471206665039,
                -2.917692184448242,
                -2.4972949028015137
            ],
            "type" : "VEC3"
        },
        {
            "bufferView" : 1,
            "componentType" : 5126,
            "count" : 3003,
            "type" : "VEC3"
        },
        {
            "bufferView" : 2,
            "componentType" : 5126,
            "count" : 3003,
            "type" : "VEC2"
        },
        {
            "bufferView" : 3,
            "componentType" : 5123,
            "count" : 4473,
            "type" : "SCALAR"
        },
        {
            "bufferView" : 5,
            "componentType" : 5126,
            "count" : 94,
            "max" : [
                1.948947548866272,
                15.185330390930176,
                0.47877997159957886
            ],
            "min" : [
                0.8917179703712463,
                0.9079788327217102,
                0.11514360457658768
            ],
            "type" : "VEC3"
        },
        {
            "bufferView" : 6,
            "componentType" : 5126,
            "count" : 94,
            "type" : "VEC3"
        },
        {
            "bufferView" : 7,
            "componentType" : 5126,
            "count" : 94,
            "type" : "VEC2"
        },
        {
            "bufferView" : 8,
            "componentType" : 5123,
            "count" : 138,
            "type" : "SCALAR"
        }
    ],
    "bufferViews" : [
        {
            "buffer" : 0,
            "byteLength" : 36036,
            "byteOffset" : 0
        },
        {
            "buffer" : 0,
            "byteLength" : 36036,
            "byteOffset" : 36036
        },
        {
            "buffer" : 0,
            "byteLength" : 24024,
            "byteOffset" : 72072
        },
        {
            "buffer" : 0,
            "byteLength" : 8946,
            "byteOffset" : 96096
        },
        {
            "buffer" : 0,
            "byteLength" : 909451,
            "byteOffset" : 105044
        },
        {
            "buffer" : 0,
            "byteLength" : 1128,
            "byteOffset" : 1014496
        },
        {
            "buffer" : 0,
            "byteLength" : 1128,
            "byteOffset" : 1015624
        },
        {
            "buffer" : 0,
            "byteLength" : 752,
            "byteOffset" : 1016752
        },
        {
            "buffer" : 0,
            "byteLength" : 276,
            "byteOffset" : 1017504
        }
    ],
    "samplers" : [
        {
            "magFilter" : 9729,
            "minFilter" : 9987
        }
    ],
    "buffers" : [
        {
            "byteLength" : 1017780,
            "uri" : "data:application/octet-stream;base64,"
        }
    ]
}
